Coordinates
version=1
nRows=14
nColumns=24
inDegrees=yes

Units are S.I. units (second, meters, Newtons, ...)
Angles are in degrees.

endheader
time	pelvis_tilt	pelvis_list	pelvis_rotation	pelvis_tx	pelvis_ty	pelvis_tz	hip_flexion_r	hip_adduction_r	hip_rotation_r	knee_angle_r	ankle_angle_r	subtalar_angle_r	mtp_angle_r	hip_flexion_l	hip_adduction_l	hip_rotation_l	knee_angle_l	ankle_angle_l	subtalar_angle_l	mtp_angle_l	lumbar_extension	lumbar_bending	lumbar_rotation
      5.56500000	     -1.88425443	      8.97051225	     -5.08586615	      1.84544814	      1.01469822	     -0.21971523	      5.25335865	    -13.53521025	     -5.17188051	    -59.22344972	    -12.12886735	     -0.36294332	      0.00000000	     18.49232975	     11.45092794	     -5.36094315	    -15.91644428	      6.30897203	    -10.20562290	      0.00000000	     -8.63794872	    -11.73481737	      2.61556792
      5.57000000	     -1.84071022	      9.15902406	     -5.07624072	      1.85211949	      1.01549995	     -0.22029160	      6.07745337	    -13.74458092	     -5.01256090	    -60.33002405	    -11.71304071	     -0.93341221	      0.00000000	     17.88594498	     11.74613788	     -5.29701042	    -15.58523253	      6.60797401	    -10.11485628	      0.00000000	     -8.67081731	    -11.91540194	      2.44539287
      5.57500000	     -1.84168729	      9.33010794	     -5.15994248	      1.85865749	      1.01627010	     -0.22076253	      6.99553779	    -13.89533840	     -4.70231660	    -61.39979691	    -10.99650564	     -1.30925036	      0.00000000	     17.32024531	     11.99719361	     -5.27593873	    -15.20735082	      6.80548876	    -10.12561842	      0.00000000	     -8.64616161	    -12.07744354	      2.41271016
      5.58000000	     -1.80741114	      9.44912148	     -5.16676271	      1.86521198	      1.01714635	     -0.22129286	      7.82161773	    -13.98578406	     -4.49705194	    -62.35900339	    -10.11561423	     -1.64317664	      0.00000000	     16.69246591	     12.22087359	     -5.17555426	    -14.81675393	      7.01206745	    -10.09823348	      0.00000000	     -8.67609659	    -12.17410009	      2.28300616
      5.58500000	     -1.76867116	      9.51873877	     -5.18179696	      1.87177560	      1.01807795	     -0.22181717	      8.62569113	    -14.00657855	     -4.27943798	    -63.22763325	     -9.06959014	     -1.85634152	      0.00000000	     16.02695367	     12.40007944	     -5.01682160	    -14.37601784	      7.18668018	    -10.12695117	      0.00000000	     -8.70020849	    -12.20945683	      2.17699278
      5.59000000	     -1.72528234	      9.54695136	     -5.18166077	      1.87832581	      1.01906629	     -0.22234357	      9.40256818	    -13.97300675	     -4.08876802	    -64.00439829	     -7.91949343	     -2.00268045	      0.00000000	     15.33160568	     12.54436168	     -4.80152079	    -13.90008332	      7.31265769	    -10.19241179	      0.00000000	     -8.73104867	    -12.19294270	      2.05821559
      5.59500000	     -1.67513018	      9.53871185	     -5.16785890	      1.88483838	      1.02008375	     -0.22289721	     10.15570806	    -13.89948333	     -3.93605111	    -64.69897207	     -6.70223701	     -2.10106690	      0.00000000	     14.61364339	     12.66049666	     -4.52560867	    -13.40309501	      7.39732636	    -10.31999940	      0.00000000	     -8.77606426	    -12.13171311	      1.93620812
      5.60000000	     -1.60317962	      9.53031136	     -5.13544968	      1.89136040	      1.02113039	     -0.22354308	     10.86910883	    -13.84022656	     -3.83938768	    -65.31110561	     -5.46812796	     -2.20212642	      0.00000000	     13.84175474	     12.79885046	     -4.14165457	    -12.84629857	      7.37564179	    -10.61589504	      0.00000000	     -8.84604202	    -12.05786987	      1.80763994
      5.60500000	     -1.54841413	      9.44316264	     -5.06728543	      1.89784504	      1.02218534	     -0.22418714	     11.56411591	    -13.68756124	     -3.78356870	    -65.83340238	     -4.20447033	     -2.21479495	      0.00000000	     13.08662535	     12.85105588	     -3.77229798	    -12.31421572	      7.41359631	    -10.82738938	      0.00000000	     -8.90802391	    -11.88806658	      1.64870378
      5.61000000	     -1.46762311	      9.37644909	     -4.98330557	      1.90435488	      1.02327551	     -0.22487676	     12.21783060	    -13.57243582	     -3.78250171	    -66.27704942	     -3.00185730	     -2.27189748	      0.00000000	     12.26142128	     12.93934833	     -3.23203895	    -11.70278975	      7.29777268	    -11.21230246	      0.00000000	     -8.99395763	    -11.74575476	      1.47515893
      5.61500000	     -1.40020018	      9.25502891	     -4.86909226	      1.91082468	      1.02435180	     -0.22559957	     12.85724935	    -13.40081396	     -3.82949624	    -66.63904743	     -1.83349509	     -2.29933121	      0.00000000	     11.45016095	     12.96741555	     -2.70295066	    -11.10593193	      7.21269894	    -11.56757640	      0.00000000	     -9.07558532	    -11.53074320	      1.28625947
      5.62000000	     -1.34090669	      9.11198413	     -4.73070593	      1.91727817	      1.02540778	     -0.22635555	     13.48471973	    -13.21309500	     -3.92266748	    -66.92686328	     -0.72652096	     -2.32627104	      0.00000000	     10.63688289	     12.97082404	     -2.14276184	    -10.49604681	      7.09958266	    -11.94774163	      0.00000000	     -9.15152462	    -11.28648029	      1.08426221
      5.62500000	     -1.28743108	      8.94785095	     -4.57033277	      1.92371286	      1.02644103	     -0.22713655	     14.09893180	    -13.00969917	     -4.05882403	    -67.14250046	      0.30960563	     -2.35467380	      0.00000000	      9.82188261	     12.94721311	     -1.56153301	     -9.87767395	      6.97040723	    -12.33621980	      0.00000000	     -9.22521071	    -11.01509484	      0.86974183
      5.63000000	     -1.24720850	      8.76072971	     -4.38630671	      1.93013964	      1.02745553	     -0.22792876	     14.70336203	    -12.78630346	     -4.23555188	    -67.28238069	      1.28364995	     -2.36893110	      0.00000000	      9.01706004	     12.89004940	     -0.99871308	     -9.25747718	      6.82470130	    -12.69591330	      0.00000000	     -9.28589405	    -10.71637000	      0.64552664
